<?xml version="1.0" standalone="no"?>
<!DOCTYPE svg PUBLIC "-//W3C//DTD SVG 20010904//EN"
 "http://www.w3.org/TR/2001/REC-SVG-20010904/DTD/svg10.dtd">
<svg version="1.0" xmlns="http://www.w3.org/2000/svg"
 width="851.000000pt" height="851.000000pt" viewBox="0 0 851.000000 851.000000"
 preserveAspectRatio="xMidYMid meet">
<metadata>
Created by potrace 1.11, written by Peter Selinger 2001-2013
</metadata>
<g transform="translate(0.000000,851.000000) scale(0.100000,-0.100000)"
fill="#000000" stroke="none">
<path d="M3221 5448 c-60 -372 -199 -629 -497 -918 -176 -171 -493 -402 -520
-379 -6 5 -24 44 -39 87 -45 129 -153 327 -288 530 -70 105 -132 192 -136 192
-4 0 -25 -46 -46 -102 -91 -251 -188 -442 -294 -586 -146 -197 -310 -340 -795
-690 -48 -35 -85 -66 -82 -69 9 -9 195 37 316 79 127 44 306 126 403 184 188
113 403 315 507 477 30 48 60 86 67 87 18 0 71 -122 98 -228 13 -53 36 -162
50 -241 13 -79 27 -146 29 -148 11 -11 354 179 531 295 355 231 543 409 757
717 61 88 116 165 120 170 24 27 -79 -195 -127 -274 l-35 -59 0 -581 0 -581
205 0 205 0 0 334 0 334 193 5 c153 4 208 9 272 27 234 63 371 193 432 410 15
55 18 104 18 320 0 216 -3 265 -18 320 -70 251 -244 381 -557 420 -46 5 -233
10 -415 10 l-331 0 -23 -142z m758 -243 c76 -20 124 -55 152 -112 23 -46 24
-58 24 -253 l0 -205 -28 -47 c-52 -89 -162 -128 -364 -128 l-113 0 0 387 0
386 138 -7 c75 -3 161 -13 191 -21z"/>
<path d="M5185 5580 c-230 -36 -397 -144 -479 -311 -54 -109 -69 -196 -63
-364 7 -215 53 -335 173 -445 100 -91 201 -126 444 -155 304 -36 410 -87 446
-214 29 -99 -1 -254 -63 -322 -68 -75 -171 -106 -321 -96 -185 12 -265 73
-287 220 l-7 47 -207 -2 -206 -3 3 -70 c13 -274 161 -462 420 -534 109 -30
261 -45 393 -38 398 22 594 157 671 465 30 118 32 402 5 501 -37 129 -99 217
-201 283 -82 53 -183 82 -371 108 -312 42 -394 68 -441 139 -32 50 -47 141
-35 224 16 112 58 166 151 194 76 23 238 22 307 -1 84 -28 143 -109 143 -198
l0 -28 211 0 211 0 -7 56 c-35 285 -180 457 -440 525 -92 24 -348 34 -450 19z"/>
<path d="M6795 5584 c-307 -49 -486 -193 -552 -444 -23 -89 -23 -309 1 -404
50 -207 181 -340 386 -395 41 -11 136 -27 210 -36 299 -36 400 -80 448 -195
22 -53 12 -209 -18 -278 -27 -63 -83 -114 -149 -137 -65 -23 -194 -30 -276
-16 -142 25 -206 85 -224 211 l-6 45 -208 3 -207 2 0 -49 c0 -81 28 -201 65
-279 65 -137 186 -232 360 -282 113 -33 302 -46 453 -32 209 19 338 65 442
159 135 121 194 299 194 578 -1 212 -44 345 -148 448 -97 97 -217 138 -511
177 -188 25 -234 35 -297 66 -82 41 -118 111 -118 230 0 71 21 150 51 188 50
64 192 96 334 77 135 -19 193 -68 217 -182 l12 -59 208 0 209 0 -6 38 c-30
185 -83 310 -169 395 -63 63 -168 121 -273 148 -59 16 -117 22 -238 24 -88 2
-173 1 -190 -1z"/>
<path d="M5383 3105 c-17 -7 -36 -22 -42 -34 -6 -11 -11 -69 -11 -130 0 -102
2 -112 24 -138 22 -26 30 -28 91 -28 61 0 69 3 91 28 22 26 24 36 24 138 0 61
-5 119 -11 131 -13 23 -67 48 -106 48 -15 -1 -42 -7 -60 -15z m105 -157 c3
-91 1 -98 -19 -108 -16 -9 -28 -9 -45 -1 -23 10 -24 15 -24 104 0 52 3 97 7
101 4 4 23 6 43 4 l35 -3 3 -97z"/>
<path d="M3240 2946 l0 -166 35 0 35 0 0 50 0 50 45 0 c70 0 95 30 95 113 0
97 -15 111 -124 116 l-86 3 0 -166z m124 98 c11 -4 16 -19 16 -49 0 -44 -10
-55 -51 -55 -16 0 -19 7 -19 55 0 57 10 66 54 49z"/>
<path d="M3490 2940 l0 -170 35 0 35 0 0 170 0 170 -35 0 -35 0 0 -170z"/>
<path d="M3610 2945 l0 -165 35 0 35 0 0 56 c0 64 8 63 46 -6 25 -47 30 -50
66 -50 21 0 38 3 38 6 0 4 -13 29 -30 56 -16 26 -30 51 -30 54 0 3 10 14 23
24 18 15 22 28 22 80 0 55 -3 64 -28 86 -24 21 -38 24 -103 24 l-74 0 0 -165z
m130 86 c20 -39 9 -66 -33 -76 -27 -7 -27 -7 -27 44 0 48 2 51 25 51 14 0 29
-8 35 -19z"/>
<path d="M3925 3098 c-8 -22 -85 -302 -85 -310 0 -5 15 -8 34 -8 28 0 35 4 40
25 5 21 12 25 46 25 34 0 41 -4 46 -25 5 -21 12 -25 40 -25 19 0 34 3 34 8 0
4 -19 78 -42 165 l-43 157 -33 0 c-18 0 -35 -6 -37 -12z m45 -140 c0 -7 3 -23
6 -35 5 -19 2 -23 -16 -23 -16 0 -20 4 -16 16 3 9 6 24 6 35 0 10 5 19 10 19
6 0 10 -6 10 -12z"/>
<path d="M4110 2945 l0 -165 36 0 37 0 -6 93 -7 92 43 -92 c40 -89 43 -93 75
-93 l32 0 0 165 0 165 -30 0 -30 0 0 -92 -1 -93 -41 93 c-40 90 -42 92 -74 92
l-34 0 0 -165z"/>
<path d="M4372 2943 l3 -168 33 -3 32 -3 0 170 0 171 -35 0 -35 0 2 -167z"/>
<path d="M4557 3103 c-6 -9 -87 -305 -87 -316 0 -4 15 -7 34 -7 28 0 35 4 40
25 5 21 12 25 46 25 34 0 41 -4 46 -25 5 -21 12 -25 40 -25 19 0 34 3 34 8 0
4 -19 78 -42 165 l-43 157 -32 0 c-17 0 -34 -3 -36 -7z m43 -145 c0 -7 3 -23
6 -35 5 -19 2 -23 -16 -23 -16 0 -20 4 -16 16 3 9 6 24 6 35 0 10 5 19 10 19
6 0 10 -6 10 -12z"/>
<path d="M4853 3086 c-24 -21 -28 -31 -27 -72 1 -38 6 -52 28 -71 15 -13 38
-23 51 -23 13 0 36 -5 50 -10 21 -8 26 -16 23 -38 -3 -23 -8 -27 -41 -30 -26
-2 -39 1 -43 12 -4 10 -19 16 -40 16 -42 0 -46 -25 -11 -65 45 -53 174 -40
197 20 30 78 -3 139 -83 154 -58 10 -71 22 -62 50 8 25 62 30 71 6 4 -9 19
-15 40 -15 28 0 34 4 34 20 0 12 -11 32 -25 45 -35 35 -121 36 -162 1z"/>
<path d="M5090 2945 l0 -165 35 0 35 0 0 50 0 50 39 0 c28 0 49 7 68 24 25 22
28 30 28 91 0 61 -3 69 -28 91 -24 21 -38 24 -103 24 l-74 0 0 -165z m128 93
c30 -30 3 -98 -39 -98 -16 0 -19 7 -19 55 0 51 2 55 23 55 13 0 28 -5 35 -12z"/>
<path d="M5610 2945 l0 -165 35 0 34 0 3 58 3 57 33 -57 c32 -55 35 -58 73
-58 l40 0 -33 61 c-30 54 -31 61 -16 70 24 14 41 73 33 119 -10 61 -41 80
-131 80 l-74 0 0 -165z m114 99 c24 -9 21 -71 -3 -84 -34 -18 -41 -12 -41 40
0 51 7 58 44 44z"/>
<path d="M5830 3080 c0 -28 3 -30 35 -30 l35 0 0 -135 0 -135 35 0 35 0 0 135
0 135 30 0 c27 0 30 3 30 30 l0 30 -100 0 -100 0 0 -30z"/>
<path d="M6168 3080 c-27 -27 -30 -36 -25 -72 7 -53 33 -78 93 -89 58 -11 68
-20 60 -53 -5 -22 -12 -26 -42 -26 -22 0 -37 6 -40 15 -4 9 -19 15 -40 15 -42
0 -46 -25 -11 -65 46 -55 167 -42 193 21 31 74 4 138 -64 149 -63 10 -84 23
-80 48 2 17 11 23 36 25 22 2 34 -2 38 -12 4 -10 19 -16 41 -16 33 0 35 1 29
28 -11 44 -41 62 -103 62 -47 0 -58 -4 -85 -30z"/>
<path d="M6410 2940 l0 -170 100 0 100 0 0 35 0 35 -65 0 -65 0 0 34 0 35 53
3 c50 3 52 4 52 33 0 29 -2 30 -52 33 l-53 3 0 35 0 34 65 0 65 0 0 30 0 30
-100 0 -100 0 0 -170z"/>
<path d="M6650 2945 l0 -165 35 0 34 0 3 58 3 57 33 -57 c32 -55 35 -58 73
-58 l40 0 -33 60 c-30 56 -32 62 -16 71 27 15 41 81 28 129 -15 56 -40 70
-127 70 l-73 0 0 -165z m114 99 c24 -9 21 -71 -3 -84 -34 -18 -41 -12 -41 40
0 51 7 58 44 44z"/>
<path d="M6871 3093 c0 -10 19 -85 42 -168 l42 -150 35 0 34 0 43 155 c23 85
42 161 43 168 0 7 -13 12 -34 12 -32 0 -34 -2 -49 -57 -9 -32 -19 -77 -23
-101 -7 -42 -24 -69 -24 -36 0 9 -9 56 -21 105 l-21 89 -34 0 c-26 0 -34 -4
-33 -17z"/>
<path d="M7140 2939 l0 -170 33 3 32 3 3 168 2 167 -35 0 -35 0 0 -171z"/>
<path d="M7292 3103 c-29 -11 -42 -62 -42 -160 0 -117 11 -143 65 -161 81 -26
165 13 165 78 0 27 -3 30 -30 30 -24 0 -33 -6 -40 -26 -9 -22 -15 -25 -47 -22
l-38 3 -3 97 c-3 96 -2 98 22 104 38 9 61 1 64 -24 3 -18 10 -22 38 -22 31 0
34 2 34 30 0 19 -9 40 -25 55 -21 22 -33 25 -87 24 -35 0 -69 -3 -76 -6z"/>
<path d="M7520 2940 l0 -171 103 3 102 3 3 33 3 32 -70 0 -71 0 0 35 0 35 55
0 55 0 0 35 0 35 -55 0 -55 0 0 35 0 35 65 0 65 0 0 30 0 30 -100 0 -100 0 0
-170z"/>
</g>
</svg>
